<svg width="181" height="60" viewBox="0 0 181 60" fill="none" xmlns="http://www.w3.org/2000/svg">
<path d="M6 31.5H11.5V25L13.5 23.5L15.5 25V41.5L17 42.5L19 41.5V18L21 17L23 18V34.5L24.5 36L26.5 34.5V27L28.5 26L30.5 27V31.5H36" stroke="black" stroke-width="3" stroke-linecap="square" stroke-linejoin="round"/>
<path d="M41 13V46.5" stroke="black" stroke-width="3" stroke-linecap="square" stroke-linejoin="round"/>
<path d="M46 31.5H47.5L50.5 29L54.5 31.5H56L59.5 29L63.5 31.5H65L68.5 29L73 31.5" stroke="#3B82F6" stroke-width="3" stroke-linecap="square" stroke-linejoin="round"/>
<path d="M82.4847 34.75V24.25H85.8447C86.9147 24.25 87.8597 24.475 88.6797 24.925C89.5097 25.375 90.1547 25.995 90.6147 26.785C91.0847 27.565 91.3197 28.47 91.3197 29.5C91.3197 30.52 91.0847 31.425 90.6147 32.215C90.1547 33.005 89.5097 33.625 88.6797 34.075C87.8597 34.525 86.9147 34.75 85.8447 34.75H82.4847ZM84.5397 32.83H85.8447C86.3247 32.83 86.7697 32.745 87.1797 32.575C87.5897 32.405 87.9447 32.17 88.2447 31.87C88.5547 31.57 88.7947 31.22 88.9647 30.82C89.1347 30.41 89.2197 29.97 89.2197 29.5C89.2197 29.03 89.1347 28.595 88.9647 28.195C88.7947 27.785 88.5547 27.43 88.2447 27.13C87.9447 26.83 87.5897 26.595 87.1797 26.425C86.7697 26.255 86.3247 26.17 85.8447 26.17H84.5397V32.83ZM96.2277 34.93C95.4677 34.93 94.7877 34.765 94.1877 34.435C93.5977 34.095 93.1327 33.63 92.7927 33.04C92.4627 32.45 92.2977 31.77 92.2977 31C92.2977 30.23 92.4627 29.55 92.7927 28.96C93.1227 28.37 93.5827 27.91 94.1727 27.58C94.7627 27.24 95.4377 27.07 96.1977 27.07C96.9677 27.07 97.6477 27.24 98.2377 27.58C98.8277 27.91 99.2877 28.37 99.6177 28.96C99.9477 29.55 100.113 30.23 100.113 31C100.113 31.77 99.9477 32.45 99.6177 33.04C99.2877 33.63 98.8277 34.095 98.2377 34.435C97.6577 34.765 96.9877 34.93 96.2277 34.93ZM96.2277 33.1C96.5977 33.1 96.9227 33.01 97.2027 32.83C97.4827 32.65 97.6977 32.405 97.8477 32.095C98.0077 31.775 98.0877 31.41 98.0877 31C98.0877 30.59 98.0077 30.23 97.8477 29.92C97.6877 29.6 97.4627 29.35 97.1727 29.17C96.8927 28.99 96.5677 28.9 96.1977 28.9C95.8377 28.9 95.5127 28.99 95.2227 29.17C94.9427 29.35 94.7227 29.6 94.5627 29.92C94.4027 30.23 94.3227 30.59 94.3227 31C94.3227 31.41 94.4027 31.775 94.5627 32.095C94.7227 32.405 94.9477 32.65 95.2377 32.83C95.5277 33.01 95.8577 33.1 96.2277 33.1ZM105.278 34.75V24.25H107.333V32.875H111.953V34.75H105.278ZM116.439 34.93C115.699 34.93 115.044 34.765 114.474 34.435C113.904 34.095 113.454 33.63 113.124 33.04C112.804 32.45 112.644 31.77 112.644 31C112.644 30.23 112.809 29.55 113.139 28.96C113.479 28.37 113.939 27.91 114.519 27.58C115.109 27.24 115.784 27.07 116.544 27.07C117.204 27.07 117.809 27.245 118.359 27.595C118.919 27.935 119.364 28.44 119.694 29.11C120.034 29.77 120.204 30.575 120.204 31.525H114.519L114.699 31.345C114.699 31.715 114.789 32.04 114.969 32.32C115.159 32.59 115.399 32.8 115.689 32.95C115.989 33.09 116.309 33.16 116.649 33.16C117.059 33.16 117.394 33.075 117.654 32.905C117.914 32.725 118.114 32.495 118.254 32.215L120.024 32.905C119.814 33.325 119.539 33.69 119.199 34C118.869 34.3 118.474 34.53 118.014 34.69C117.554 34.85 117.029 34.93 116.439 34.93ZM114.804 30.235L114.624 30.055H118.239L118.074 30.235C118.074 29.875 117.989 29.59 117.819 29.38C117.649 29.16 117.439 29 117.189 28.9C116.949 28.8 116.714 28.75 116.484 28.75C116.254 28.75 116.009 28.8 115.749 28.9C115.489 29 115.264 29.16 115.074 29.38C114.894 29.59 114.804 29.875 114.804 30.235ZM124.16 34.93C123.68 34.93 123.23 34.86 122.81 34.72C122.39 34.57 122.02 34.36 121.7 34.09C121.38 33.81 121.13 33.47 120.95 33.07L122.645 32.29C122.795 32.53 123 32.74 123.26 32.92C123.52 33.09 123.82 33.175 124.16 33.175C124.49 33.175 124.745 33.13 124.925 33.04C125.105 32.94 125.195 32.8 125.195 32.62C125.195 32.44 125.12 32.31 124.97 32.23C124.83 32.14 124.635 32.065 124.385 32.005L123.695 31.825C122.975 31.635 122.405 31.335 121.985 30.925C121.575 30.505 121.37 30.025 121.37 29.485C121.37 28.715 121.615 28.12 122.105 27.7C122.605 27.28 123.31 27.07 124.22 27.07C124.69 27.07 125.125 27.14 125.525 27.28C125.935 27.42 126.285 27.615 126.575 27.865C126.865 28.115 127.065 28.405 127.175 28.735L125.54 29.485C125.47 29.285 125.3 29.125 125.03 29.005C124.76 28.875 124.49 28.81 124.22 28.81C123.95 28.81 123.74 28.87 123.59 28.99C123.45 29.1 123.38 29.255 123.38 29.455C123.38 29.585 123.45 29.695 123.59 29.785C123.73 29.865 123.93 29.935 124.19 29.995L125.165 30.235C125.655 30.355 126.045 30.55 126.335 30.82C126.635 31.08 126.85 31.375 126.98 31.705C127.12 32.025 127.19 32.34 127.19 32.65C127.19 33.1 127.055 33.5 126.785 33.85C126.525 34.19 126.165 34.455 125.705 34.645C125.255 34.835 124.74 34.93 124.16 34.93ZM131.133 34.93C130.653 34.93 130.203 34.86 129.783 34.72C129.363 34.57 128.993 34.36 128.673 34.09C128.353 33.81 128.103 33.47 127.923 33.07L129.618 32.29C129.768 32.53 129.973 32.74 130.233 32.92C130.493 33.09 130.793 33.175 131.133 33.175C131.463 33.175 131.718 33.13 131.898 33.04C132.078 32.94 132.168 32.8 132.168 32.62C132.168 32.44 132.093 32.31 131.943 32.23C131.803 32.14 131.608 32.065 131.358 32.005L130.668 31.825C129.948 31.635 129.378 31.335 128.958 30.925C128.548 30.505 128.343 30.025 128.343 29.485C128.343 28.715 128.588 28.12 129.078 27.7C129.578 27.28 130.283 27.07 131.193 27.07C131.663 27.07 132.098 27.14 132.498 27.28C132.908 27.42 133.258 27.615 133.548 27.865C133.838 28.115 134.038 28.405 134.148 28.735L132.513 29.485C132.443 29.285 132.273 29.125 132.003 29.005C131.733 28.875 131.463 28.81 131.193 28.81C130.923 28.81 130.713 28.87 130.563 28.99C130.423 29.1 130.353 29.255 130.353 29.455C130.353 29.585 130.423 29.695 130.563 29.785C130.703 29.865 130.903 29.935 131.163 29.995L132.138 30.235C132.628 30.355 133.018 30.55 133.308 30.82C133.608 31.08 133.823 31.375 133.953 31.705C134.093 32.025 134.163 32.34 134.163 32.65C134.163 33.1 134.028 33.5 133.758 33.85C133.498 34.19 133.138 34.455 132.678 34.645C132.228 34.835 131.713 34.93 131.133 34.93Z" fill="black"/>
<path d="M147.589 34.75L150.604 24.25H152.689L149.554 34.75H147.589ZM141.259 34.75L138.154 24.25H140.239L143.224 34.75H141.259ZM141.529 34.75L144.394 24.25H146.254L143.404 34.75H141.529ZM147.394 34.75L144.574 24.25H146.434L149.359 34.75H147.394ZM156.565 34.93C155.805 34.93 155.125 34.765 154.525 34.435C153.935 34.095 153.47 33.63 153.13 33.04C152.8 32.45 152.635 31.77 152.635 31C152.635 30.23 152.8 29.55 153.13 28.96C153.46 28.37 153.92 27.91 154.51 27.58C155.1 27.24 155.775 27.07 156.535 27.07C157.305 27.07 157.985 27.24 158.575 27.58C159.165 27.91 159.625 28.37 159.955 28.96C160.285 29.55 160.45 30.23 160.45 31C160.45 31.77 160.285 32.45 159.955 33.04C159.625 33.63 159.165 34.095 158.575 34.435C157.995 34.765 157.325 34.93 156.565 34.93ZM156.565 33.1C156.935 33.1 157.26 33.01 157.54 32.83C157.82 32.65 158.035 32.405 158.185 32.095C158.345 31.775 158.425 31.41 158.425 31C158.425 30.59 158.345 30.23 158.185 29.92C158.025 29.6 157.8 29.35 157.51 29.17C157.23 28.99 156.905 28.9 156.535 28.9C156.175 28.9 155.85 28.99 155.56 29.17C155.28 29.35 155.06 29.6 154.9 29.92C154.74 30.23 154.66 30.59 154.66 31C154.66 31.41 154.74 31.775 154.9 32.095C155.06 32.405 155.285 32.65 155.575 32.83C155.865 33.01 156.195 33.1 156.565 33.1ZM163.15 30.805C163.15 29.995 163.305 29.325 163.615 28.795C163.935 28.265 164.34 27.87 164.83 27.61C165.33 27.35 165.85 27.22 166.39 27.22V29.14C165.93 29.14 165.495 29.195 165.085 29.305C164.685 29.415 164.36 29.595 164.11 29.845C163.86 30.095 163.735 30.415 163.735 30.805H163.15ZM161.755 34.75V27.25H163.735V34.75H161.755ZM169.329 32.845L168.144 31.48L171.984 27.25H174.339L169.329 32.845ZM167.439 34.75V24.25H169.419V34.75H167.439ZM172.239 34.75L169.749 31.12L171.039 29.755L174.564 34.75H172.239Z" fill="#3B82F6"/>
</svg>
