<svg width="249" height="60" viewBox="0 0 249 60" fill="none" xmlns="http://www.w3.org/2000/svg">
<path d="M6 31.5H11.5V25L13.5 23.5L15.5 25V41.5L17 42.5L19 41.5V18L21 17L23 18V34.5L24.5 36L26.5 34.5V27L28.5 26L30.5 27V31.5H36" stroke="black" stroke-width="3" stroke-linecap="square" stroke-linejoin="round"/>
<path d="M41 13V46.5" stroke="black" stroke-width="3" stroke-linecap="square" stroke-linejoin="round"/>
<path d="M46 31.5H47.5L50.5 29L54.5 31.5H56L59.5 29L63.5 31.5H65L68.5 29L73 31.5" stroke="#3B82F6" stroke-width="3" stroke-linecap="square" stroke-linejoin="round"/>
<path d="M83.1069 39.25V21.05H88.9309C90.7855 21.05 92.4235 21.44 93.8449 22.22C95.2835 23 96.4015 24.0747 97.1989 25.444C98.0135 26.796 98.4209 28.3647 98.4209 30.15C98.4209 31.918 98.0135 33.4867 97.1989 34.856C96.4015 36.2253 95.2835 37.3 93.8449 38.08C92.4235 38.86 90.7855 39.25 88.9309 39.25H83.1069ZM86.6689 35.922H88.9309C89.7629 35.922 90.5342 35.7747 91.2449 35.48C91.9555 35.1853 92.5709 34.778 93.0909 34.258C93.6282 33.738 94.0442 33.1313 94.3389 32.438C94.6335 31.7273 94.7809 30.9647 94.7809 30.15C94.7809 29.3353 94.6335 28.5813 94.3389 27.888C94.0442 27.1773 93.6282 26.562 93.0909 26.042C92.5709 25.522 91.9555 25.1147 91.2449 24.82C90.5342 24.5253 89.7629 24.378 88.9309 24.378H86.6689V35.922ZM106.928 39.562C105.611 39.562 104.432 39.276 103.392 38.704C102.369 38.1147 101.563 37.3087 100.974 36.286C100.402 35.2633 100.116 34.0847 100.116 32.75C100.116 31.4153 100.402 30.2367 100.974 29.214C101.546 28.1913 102.343 27.394 103.366 26.822C104.389 26.2327 105.559 25.938 106.876 25.938C108.211 25.938 109.389 26.2327 110.412 26.822C111.435 27.394 112.232 28.1913 112.804 29.214C113.376 30.2367 113.662 31.4153 113.662 32.75C113.662 34.0847 113.376 35.2633 112.804 36.286C112.232 37.3087 111.435 38.1147 110.412 38.704C109.407 39.276 108.245 39.562 106.928 39.562ZM106.928 36.39C107.569 36.39 108.133 36.234 108.618 35.922C109.103 35.61 109.476 35.1853 109.736 34.648C110.013 34.0933 110.152 33.4607 110.152 32.75C110.152 32.0393 110.013 31.4153 109.736 30.878C109.459 30.3233 109.069 29.89 108.566 29.578C108.081 29.266 107.517 29.11 106.876 29.11C106.252 29.11 105.689 29.266 105.186 29.578C104.701 29.89 104.319 30.3233 104.042 30.878C103.765 31.4153 103.626 32.0393 103.626 32.75C103.626 33.4607 103.765 34.0933 104.042 34.648C104.319 35.1853 104.709 35.61 105.212 35.922C105.715 36.234 106.287 36.39 106.928 36.39ZM122.615 39.25V21.05H126.177V36H134.185V39.25H122.615ZM141.962 39.562C140.679 39.562 139.544 39.276 138.556 38.704C137.568 38.1147 136.788 37.3087 136.216 36.286C135.661 35.2633 135.384 34.0847 135.384 32.75C135.384 31.4153 135.67 30.2367 136.242 29.214C136.831 28.1913 137.628 27.394 138.634 26.822C139.656 26.2327 140.826 25.938 142.144 25.938C143.288 25.938 144.336 26.2413 145.29 26.848C146.26 27.4373 147.032 28.3127 147.604 29.474C148.193 30.618 148.488 32.0133 148.488 33.66H138.634L138.946 33.348C138.946 33.9893 139.102 34.5527 139.414 35.038C139.743 35.506 140.159 35.87 140.662 36.13C141.182 36.3727 141.736 36.494 142.326 36.494C143.036 36.494 143.617 36.3467 144.068 36.052C144.518 35.74 144.865 35.3413 145.108 34.856L148.176 36.052C147.812 36.78 147.335 37.4127 146.746 37.95C146.174 38.47 145.489 38.8687 144.692 39.146C143.894 39.4233 142.984 39.562 141.962 39.562ZM139.128 31.424L138.816 31.112H145.082L144.796 31.424C144.796 30.8 144.648 30.306 144.354 29.942C144.059 29.5607 143.695 29.2833 143.262 29.11C142.846 28.9367 142.438 28.85 142.04 28.85C141.641 28.85 141.216 28.9367 140.766 29.11C140.315 29.2833 139.925 29.5607 139.596 29.942C139.284 30.306 139.128 30.8 139.128 31.424ZM155.344 39.562C154.512 39.562 153.732 39.4407 153.004 39.198C152.276 38.938 151.635 38.574 151.08 38.106C150.525 37.6207 150.092 37.0313 149.78 36.338L152.718 34.986C152.978 35.402 153.333 35.766 153.784 36.078C154.235 36.3727 154.755 36.52 155.344 36.52C155.916 36.52 156.358 36.442 156.67 36.286C156.982 36.1127 157.138 35.87 157.138 35.558C157.138 35.246 157.008 35.0207 156.748 34.882C156.505 34.726 156.167 34.596 155.734 34.492L154.538 34.18C153.29 33.8507 152.302 33.3307 151.574 32.62C150.863 31.892 150.508 31.06 150.508 30.124C150.508 28.7893 150.933 27.758 151.782 27.03C152.649 26.302 153.871 25.938 155.448 25.938C156.263 25.938 157.017 26.0593 157.71 26.302C158.421 26.5447 159.027 26.8827 159.53 27.316C160.033 27.7493 160.379 28.252 160.57 28.824L157.736 30.124C157.615 29.7773 157.32 29.5 156.852 29.292C156.384 29.0667 155.916 28.954 155.448 28.954C154.98 28.954 154.616 29.058 154.356 29.266C154.113 29.4567 153.992 29.7253 153.992 30.072C153.992 30.2973 154.113 30.488 154.356 30.644C154.599 30.7827 154.945 30.904 155.396 31.008L157.086 31.424C157.935 31.632 158.611 31.97 159.114 32.438C159.634 32.8887 160.007 33.4 160.232 33.972C160.475 34.5267 160.596 35.0727 160.596 35.61C160.596 36.39 160.362 37.0833 159.894 37.69C159.443 38.2793 158.819 38.7387 158.022 39.068C157.242 39.3973 156.349 39.562 155.344 39.562ZM167.43 39.562C166.598 39.562 165.818 39.4407 165.09 39.198C164.362 38.938 163.721 38.574 163.166 38.106C162.611 37.6207 162.178 37.0313 161.866 36.338L164.804 34.986C165.064 35.402 165.419 35.766 165.87 36.078C166.321 36.3727 166.841 36.52 167.43 36.52C168.002 36.52 168.444 36.442 168.756 36.286C169.068 36.1127 169.224 35.87 169.224 35.558C169.224 35.246 169.094 35.0207 168.834 34.882C168.591 34.726 168.253 34.596 167.82 34.492L166.624 34.18C165.376 33.8507 164.388 33.3307 163.66 32.62C162.949 31.892 162.594 31.06 162.594 30.124C162.594 28.7893 163.019 27.758 163.868 27.03C164.735 26.302 165.957 25.938 167.534 25.938C168.349 25.938 169.103 26.0593 169.796 26.302C170.507 26.5447 171.113 26.8827 171.616 27.316C172.119 27.7493 172.465 28.252 172.656 28.824L169.822 30.124C169.701 29.7773 169.406 29.5 168.938 29.292C168.47 29.0667 168.002 28.954 167.534 28.954C167.066 28.954 166.702 29.058 166.442 29.266C166.199 29.4567 166.078 29.7253 166.078 30.072C166.078 30.2973 166.199 30.488 166.442 30.644C166.685 30.7827 167.031 30.904 167.482 31.008L169.172 31.424C170.021 31.632 170.697 31.97 171.2 32.438C171.72 32.8887 172.093 33.4 172.318 33.972C172.561 34.5267 172.682 35.0727 172.682 35.61C172.682 36.39 172.448 37.0833 171.98 37.69C171.529 38.2793 170.905 38.7387 170.108 39.068C169.328 39.3973 168.435 39.562 167.43 39.562Z" fill="black"/>
<path d="M195.955 39.25L201.181 21.05H204.795L199.361 39.25H195.955ZM184.983 39.25L179.601 21.05H183.215L188.389 39.25H184.983ZM185.451 39.25L190.417 21.05H193.641L188.701 39.25H185.451ZM195.617 39.25L190.729 21.05H193.953L199.023 39.25H195.617ZM211.512 39.562C210.195 39.562 209.016 39.276 207.976 38.704C206.953 38.1147 206.147 37.3087 205.558 36.286C204.986 35.2633 204.7 34.0847 204.7 32.75C204.7 31.4153 204.986 30.2367 205.558 29.214C206.13 28.1913 206.927 27.394 207.95 26.822C208.973 26.2327 210.143 25.938 211.46 25.938C212.795 25.938 213.973 26.2327 214.996 26.822C216.019 27.394 216.816 28.1913 217.388 29.214C217.96 30.2367 218.246 31.4153 218.246 32.75C218.246 34.0847 217.96 35.2633 217.388 36.286C216.816 37.3087 216.019 38.1147 214.996 38.704C213.991 39.276 212.829 39.562 211.512 39.562ZM211.512 36.39C212.153 36.39 212.717 36.234 213.202 35.922C213.687 35.61 214.06 35.1853 214.32 34.648C214.597 34.0933 214.736 33.4607 214.736 32.75C214.736 32.0393 214.597 31.4153 214.32 30.878C214.043 30.3233 213.653 29.89 213.15 29.578C212.665 29.266 212.101 29.11 211.46 29.11C210.836 29.11 210.273 29.266 209.77 29.578C209.285 29.89 208.903 30.3233 208.626 30.878C208.349 31.4153 208.21 32.0393 208.21 32.75C208.21 33.4607 208.349 34.0933 208.626 34.648C208.903 35.1853 209.293 35.61 209.796 35.922C210.299 36.234 210.871 36.39 211.512 36.39ZM222.927 32.412C222.927 31.008 223.196 29.8467 223.733 28.928C224.288 28.0093 224.99 27.3247 225.839 26.874C226.706 26.4233 227.607 26.198 228.543 26.198V29.526C227.746 29.526 226.992 29.6213 226.281 29.812C225.588 30.0027 225.025 30.3147 224.591 30.748C224.158 31.1813 223.941 31.736 223.941 32.412H222.927ZM220.509 39.25V26.25H223.941V39.25H220.509ZM233.637 35.948L231.583 33.582L238.239 26.25H242.321L233.637 35.948ZM230.361 39.25V21.05H233.793V39.25H230.361ZM238.681 39.25L234.365 32.958L236.601 30.592L242.711 39.25H238.681Z" fill="#3B82F6"/>
</svg>
