<svg width="252" height="60" viewBox="0 0 252 60" fill="none" xmlns="http://www.w3.org/2000/svg">
<path d="M6 31.5H11.5V25L13.5 23.5L15.5 25V41.5L17 42.5L19 41.5V18L21 17L23 18V34.5L24.5 36L26.5 34.5V27L28.5 26L30.5 27V31.5H36" stroke="black" stroke-width="3" stroke-linecap="square" stroke-linejoin="round"/>
<path d="M41 13V46.5" stroke="black" stroke-width="3" stroke-linecap="square" stroke-linejoin="round"/>
<path d="M46 31.5H47.5L50.5 29L54.5 31.5H56L59.5 29L63.5 31.5H65L68.5 29L73 31.5" stroke="#3B82F6" stroke-width="3" stroke-linecap="square" stroke-linejoin="round"/>
<path d="M83.2309 39.25V21.05H89.1849C91.1089 21.05 92.8076 21.44 94.2809 22.22C95.7716 23 96.9329 24.0747 97.7649 25.444C98.5969 26.796 99.0129 28.3647 99.0129 30.15C99.0129 31.918 98.5969 33.4867 97.7649 34.856C96.9329 36.2253 95.7716 37.3 94.2809 38.08C92.8076 38.86 91.1089 39.25 89.1849 39.25H83.2309ZM87.4169 35.298H89.1849C89.9822 35.298 90.7189 35.1767 91.3949 34.934C92.0709 34.674 92.6602 34.3187 93.1629 33.868C93.6656 33.4 94.0556 32.854 94.3329 32.23C94.6102 31.5887 94.7489 30.8953 94.7489 30.15C94.7489 29.4047 94.6102 28.72 94.3329 28.096C94.0556 27.4547 93.6656 26.9087 93.1629 26.458C92.6602 25.99 92.0709 25.6347 91.3949 25.392C90.7189 25.132 89.9822 25.002 89.1849 25.002H87.4169V35.298ZM107.413 39.562C106.044 39.562 104.839 39.276 103.799 38.704C102.759 38.1147 101.936 37.3087 101.329 36.286C100.74 35.2633 100.445 34.0847 100.445 32.75C100.445 31.4153 100.731 30.2367 101.303 29.214C101.892 28.1913 102.707 27.394 103.747 26.822C104.804 26.2327 106 25.938 107.335 25.938C108.704 25.938 109.909 26.2327 110.949 26.822C112.006 27.394 112.821 28.1913 113.393 29.214C113.982 30.2367 114.277 31.4153 114.277 32.75C114.277 34.0847 113.982 35.2633 113.393 36.286C112.821 37.3087 112.015 38.1147 110.975 38.704C109.935 39.276 108.748 39.562 107.413 39.562ZM107.413 35.818C107.933 35.818 108.392 35.688 108.791 35.428C109.207 35.168 109.528 34.8127 109.753 34.362C109.996 33.894 110.117 33.3567 110.117 32.75C110.117 32.1433 109.996 31.6147 109.753 31.164C109.528 30.696 109.207 30.332 108.791 30.072C108.375 29.812 107.898 29.682 107.361 29.682C106.824 29.682 106.347 29.812 105.931 30.072C105.515 30.332 105.186 30.696 104.943 31.164C104.718 31.6147 104.605 32.1433 104.605 32.75C104.605 33.3567 104.718 33.894 104.943 34.362C105.186 34.8127 105.515 35.168 105.931 35.428C106.364 35.688 106.858 35.818 107.413 35.818ZM122.789 39.25V21.05H126.975V35.402H134.723V39.25H122.789ZM142.755 39.562C141.403 39.562 140.207 39.276 139.167 38.704C138.127 38.132 137.313 37.3347 136.723 36.312C136.134 35.2893 135.839 34.102 135.839 32.75C135.839 31.398 136.134 30.2107 136.723 29.188C137.313 28.1653 138.127 27.368 139.167 26.796C140.225 26.224 141.438 25.938 142.807 25.938C144.038 25.938 145.147 26.2327 146.135 26.822C147.123 27.4113 147.903 28.2953 148.475 29.474C149.065 30.6353 149.359 32.074 149.359 33.79H139.583L140.025 33.296C140.025 33.8853 140.147 34.4053 140.389 34.856C140.632 35.3067 140.97 35.6533 141.403 35.896C141.837 36.1213 142.322 36.234 142.859 36.234C143.501 36.234 144.038 36.0953 144.471 35.818C144.905 35.5233 145.208 35.1593 145.381 34.726L148.995 35.948C148.649 36.78 148.155 37.4647 147.513 38.002C146.889 38.5393 146.17 38.938 145.355 39.198C144.541 39.4407 143.674 39.562 142.755 39.562ZM140.129 31.632L139.713 31.086H145.537L145.147 31.632C145.147 30.9733 145.017 30.462 144.757 30.098C144.497 29.7167 144.177 29.4393 143.795 29.266C143.431 29.0927 143.059 29.006 142.677 29.006C142.296 29.006 141.906 29.0927 141.507 29.266C141.126 29.4393 140.797 29.7167 140.519 30.098C140.259 30.462 140.129 30.9733 140.129 31.632ZM155.952 39.562C155.103 39.562 154.306 39.4407 153.56 39.198C152.832 38.9553 152.191 38.6087 151.636 38.158C151.099 37.69 150.7 37.1267 150.44 36.468L153.794 35.064C154.02 35.4973 154.332 35.8267 154.73 36.052C155.129 36.26 155.536 36.364 155.952 36.364C156.368 36.364 156.698 36.2947 156.94 36.156C157.183 36 157.304 35.792 157.304 35.532C157.304 35.2547 157.183 35.038 156.94 34.882C156.698 34.726 156.342 34.5873 155.874 34.466L154.73 34.206C153.534 33.894 152.607 33.374 151.948 32.646C151.29 31.918 150.96 31.0773 150.96 30.124C150.96 28.7893 151.42 27.758 152.338 27.03C153.257 26.302 154.531 25.938 156.16 25.938C157.096 25.938 157.911 26.068 158.604 26.328C159.315 26.5707 159.904 26.9173 160.372 27.368C160.858 27.8013 161.204 28.304 161.412 28.876L158.188 30.228C158.067 29.8813 157.816 29.6127 157.434 29.422C157.053 29.2313 156.646 29.136 156.212 29.136C155.831 29.136 155.536 29.2227 155.328 29.396C155.12 29.5693 155.016 29.786 155.016 30.046C155.016 30.254 155.138 30.436 155.38 30.592C155.64 30.7307 156.013 30.8607 156.498 30.982L157.876 31.32C158.691 31.528 159.376 31.8487 159.93 32.282C160.485 32.698 160.901 33.192 161.178 33.764C161.456 34.3187 161.594 34.9167 161.594 35.558C161.594 36.39 161.352 37.1093 160.866 37.716C160.398 38.3053 159.74 38.7647 158.89 39.094C158.041 39.406 157.062 39.562 155.952 39.562ZM168.343 39.562C167.494 39.562 166.696 39.4407 165.951 39.198C165.223 38.9553 164.582 38.6087 164.027 38.158C163.49 37.69 163.091 37.1267 162.831 36.468L166.185 35.064C166.41 35.4973 166.722 35.8267 167.121 36.052C167.52 36.26 167.927 36.364 168.343 36.364C168.759 36.364 169.088 36.2947 169.331 36.156C169.574 36 169.695 35.792 169.695 35.532C169.695 35.2547 169.574 35.038 169.331 34.882C169.088 34.726 168.733 34.5873 168.265 34.466L167.121 34.206C165.925 33.894 164.998 33.374 164.339 32.646C163.68 31.918 163.351 31.0773 163.351 30.124C163.351 28.7893 163.81 27.758 164.729 27.03C165.648 26.302 166.922 25.938 168.551 25.938C169.487 25.938 170.302 26.068 170.995 26.328C171.706 26.5707 172.295 26.9173 172.763 27.368C173.248 27.8013 173.595 28.304 173.803 28.876L170.579 30.228C170.458 29.8813 170.206 29.6127 169.825 29.422C169.444 29.2313 169.036 29.136 168.603 29.136C168.222 29.136 167.927 29.2227 167.719 29.396C167.511 29.5693 167.407 29.786 167.407 30.046C167.407 30.254 167.528 30.436 167.771 30.592C168.031 30.7307 168.404 30.8607 168.889 30.982L170.267 31.32C171.082 31.528 171.766 31.8487 172.321 32.282C172.876 32.698 173.292 33.192 173.569 33.764C173.846 34.3187 173.985 34.9167 173.985 35.558C173.985 36.39 173.742 37.1093 173.257 37.716C172.789 38.3053 172.13 38.7647 171.281 39.094C170.432 39.406 169.452 39.562 168.343 39.562Z" fill="black"/>
<path d="M197.07 39.25L202.114 21.05H206.378L201.048 39.25H197.07ZM186.176 39.25L180.872 21.05H185.136L190.154 39.25H186.176ZM186.748 39.25L191.532 21.05H195.276L190.518 39.25H186.748ZM196.68 39.25L191.948 21.05H195.692L200.658 39.25H196.68ZM213.063 39.562C211.694 39.562 210.489 39.276 209.449 38.704C208.409 38.1147 207.586 37.3087 206.979 36.286C206.39 35.2633 206.095 34.0847 206.095 32.75C206.095 31.4153 206.381 30.2367 206.953 29.214C207.543 28.1913 208.357 27.394 209.397 26.822C210.455 26.2327 211.651 25.938 212.985 25.938C214.355 25.938 215.559 26.2327 216.599 26.822C217.657 27.394 218.471 28.1913 219.043 29.214C219.633 30.2367 219.927 31.4153 219.927 32.75C219.927 34.0847 219.633 35.2633 219.043 36.286C218.471 37.3087 217.665 38.1147 216.625 38.704C215.585 39.276 214.398 39.562 213.063 39.562ZM213.063 35.818C213.583 35.818 214.043 35.688 214.441 35.428C214.857 35.168 215.178 34.8127 215.403 34.362C215.646 33.894 215.767 33.3567 215.767 32.75C215.767 32.1433 215.646 31.6147 215.403 31.164C215.178 30.696 214.857 30.332 214.441 30.072C214.025 29.812 213.549 29.682 213.011 29.682C212.474 29.682 211.997 29.812 211.581 30.072C211.165 30.332 210.836 30.696 210.593 31.164C210.368 31.6147 210.255 32.1433 210.255 32.75C210.255 33.3567 210.368 33.894 210.593 34.362C210.836 34.8127 211.165 35.168 211.581 35.428C212.015 35.688 212.509 35.818 213.063 35.818ZM224.894 32.516C224.894 31.112 225.171 29.942 225.726 29.006C226.298 28.07 227.009 27.368 227.858 26.9C228.725 26.432 229.626 26.198 230.562 26.198V30.15C229.765 30.15 229.011 30.2367 228.3 30.41C227.607 30.5833 227.043 30.852 226.61 31.216C226.177 31.5627 225.96 32.0133 225.96 32.568L224.894 32.516ZM221.904 39.25V26.25H225.96V39.25H221.904ZM236.112 36.364L233.72 33.556L240.246 26.25H245.004L236.112 36.364ZM232.264 39.25V21.05H236.32V39.25H232.264ZM240.636 39.25L236.606 33.504L239.258 30.722L245.342 39.25H240.636Z" fill="#3B82F6"/>
</svg>
